<?xml version="1.0" encoding="utf-8"?>
<!-- Generator: Adobe Illustrator 26.0.3, SVG Export Plug-In . SVG Version: 6.00 Build 0)  -->
<svg version="1.1" id="Ebene_1" xmlns="http://www.w3.org/2000/svg" xmlns:xlink="http://www.w3.org/1999/xlink" x="0px" y="0px" width="20"
	 viewBox="0 0 254.1 198.4" style="enable-background:new 0 0 254.1 198.4;" xml:space="preserve">
<style type="text/css">
	.st0{fill:#FDE200;}
</style>
<g id="Icon">
	<path class="st0" d="M246.6,49C227.7,3.1,156-10.8,91.9,15.7C27.9,42.2-12,102.2,7,148.1c19,45.9,89.6,60.2,153.6,33.8
		c4.2-1.7,8.3-3.7,12.4-5.7c-0.6-0.2-1.2-0.5-1.8-0.7c-5.4-2.4-9.9-5.5-13.9-8.9c-3.4-2.9-6.4-6-9.1-9.2
		c-48.9,19.5-101.9,9.1-118.1-25.9c-16.9-36.7,13-86.7,63.7-110.1C144.5-2,202.8,7.3,219.7,44c8.2,17.8,5.2,38.8-5.8,58.3
		c-9.7,14-15.8,4.5-23.9-6.4c-27.8-37.2-44.4-65.5-63.2-65.5c-19,0-51.1,60.6-75.8,105.6c-1.4,2-0.4,5.1,2.2,7.2
		c2.7,2.2,6.1,2.3,7.7,0.4c0.2-0.3,0.4-0.5,0.5-0.8c15.7-27.5,36.2-62,47.5-62c13.5,0,25.6,20.3,36.6,36.3
		c17.1,24.7,34.7,61.4,71.6,27.3h0C245.7,115.5,259.1,79.1,246.6,49z"/>
</g>
</svg>
