<?xml version="1.0" encoding="utf-8"?>
<!-- Generator: Adobe Illustrator 25.0.1, SVG Export Plug-In . SVG Version: 6.00 Build 0)  -->
<svg version="1.1" id="Layer_1" xmlns="http://www.w3.org/2000/svg" xmlns:xlink="http://www.w3.org/1999/xlink" x="0px" y="0px"
	 viewBox="0 0 1510.87 171.74" style="enable-background:new 0 0 1510.87 171.74;" xml:space="preserve">
<style type="text/css">
	.st0{fill:#04103A;}
	.st1{fill:#00EEBC;}
	.st2{fill:#19ABFF;}
	.st3{fill:#5922AF;}
</style>
<g>
	<g>
		<path class="st0" d="M253.76,56.45c0-9.32,14.64-9.32,14.64,0v43.81c0,17.41-8.32,27.95-27.5,27.95c-9.43,0-17.3-2.55-24.18-11.42
			c-5.66-6.77,4.99-16.53,10.76-9.43c4.66,5.77,9.65,7.1,14.53,6.88c6.21-0.22,11.65-3,11.76-13.97V56.45z"/>
		<path class="st0" d="M339.58,117.66c-5.88,6.77-13.75,10.65-22.29,10.65c-16.64,0-28.5-11.53-28.5-25.4
			c0-9.65,5.88-18.41,15.64-22.4c-1.77-2.66-3.77-7.43-3.77-11.42c0-13.64,9.65-21.52,20.18-21.52c13.97,0,22.51,8.76,22.51,22.4
			c0,7.87-3.77,15.53-11.64,19.52l7.87,7.76l5.21-8.32c5.21-7.65,15.3-0.44,10.65,6.54c-2,3.44-4.55,7.1-7.32,11.53l8.1,7.98
			c7.1,8.1-4.88,15.97-10.76,9.43L339.58,117.66z M317.29,113.67c4.66,0,8.54-1.88,12.53-5.77c-4.88-4.99-10.76-10.65-15.53-15.64
			c-3.99,1-9.87,2.11-10.87,10.65C303.43,109.79,310.3,113.67,317.29,113.67z M319.95,78.96c6.88,0,8.98-5.88,8.98-9.87
			c0-4.1-3.1-7.76-6.99-7.76c-3.77,0-6.65,3.66-6.65,7.76C315.29,73.08,316.07,75.85,319.95,78.96z"/>
		<path class="st0" d="M413.09,56.45c0-9.32,14.64-9.32,14.64,0v43.81c0,17.41-8.32,27.95-27.5,27.95c-9.43,0-17.3-2.55-24.18-11.42
			c-5.66-6.77,4.99-16.53,10.76-9.43c4.66,5.77,9.65,7.1,14.53,6.88c6.21-0.22,11.64-3,11.75-13.97V56.45z"/>
		<path class="st0" d="M494.81,56.45c0-9.1,14.64-9.43,14.64,0v63.32c0,9.2-14.64,9.43-14.64,0V56.45z"/>
		<path class="st0" d="M542.37,126.54c-3.66,0-7.65-2-7.65-6.88V56.67c0-3.99,3.99-6.88,7.65-6.88h25.4c50.68,0,49.57,76.75,1,76.75
			H542.37z M549.36,63.32v49.68h18.41c29.94,0,31.28-49.68,0-49.68H549.36z"/>
		<path class="st0" d="M634.07,126.54c-3.88,0-6.88-3-6.88-6.88V56.67c0-3.99,3-6.88,6.88-6.88h39.81c10.2,0,9.98,14.42,0,14.42
			h-31.94v16.64h27.95c9.87,0,9.87,14.53,0,14.53h-27.95v16.64h33.83c10.09,0,10.87,14.53,0,14.53H634.07z"/>
		<path class="st0" d="M711.13,126.54c-3.88,0-6.87-3-6.87-6.88V56.67c0-3.99,2.99-6.88,6.87-6.88h39.81c10.2,0,9.98,14.42,0,14.42
			h-31.94v16.64h27.95c9.87,0,9.87,14.53,0,14.53h-27.95v16.64h33.83c10.1,0,10.87,14.53,0,14.53H711.13z"/>
		<path class="st0" d="M781.54,57.55c0-3.99,0.89-7.87,6.66-7.87c3.99,0,4.88,1,7.87,3.88l36.71,45.91V56.45
			c0-3.66,3.22-7.65,6.99-7.65c3.99,0,7.87,3.99,7.87,7.65v62.44c0,4.88-2.99,6.76-5.88,7.65c-3.88,0-5.77-0.89-8.98-3.88
			l-36.71-46.58v42.81c0,4.88-2.99,7.65-6.98,7.65c-3.99,0-7.54-2.77-7.54-7.65V57.55z"/>
		<path class="st0" d="M870.58,66.43c2.55-21.51,35.05-25.4,50.35-13.64c7.54,6.1-0.44,15.75-7.1,10.87
			c-8.21-5.21-26.84-7.65-29.17,3.88c-3,18.19,45.25,7.76,44.47,37.26c-0.77,28.17-41.59,28.84-56.89,16.19
			c-3.66-3-3.55-7.87-1.55-10.87c2.88-2.88,6.1-3.88,9.87-0.78c9.09,6.21,32.5,10.87,34.16-4.88
			C913.28,88.05,867.14,97.92,870.58,66.43z"/>
		<path class="st0" d="M947.97,87.61c0-21.41,13.42-39.81,38.93-39.81c9.65,0,17.3,2.88,25.4,9.87c2.99,2.77,3.33,7.65,0.33,10.76
			c-2.99,2.66-7.54,2.33-10.2-0.33c-4.55-4.77-9.2-6.1-15.53-6.1c-17.08,0-25.28,12.09-25.28,25.62c0,13.75,8.1,26.39,25.28,26.39
			c6.32,0,12.2-2.55,17.3-7.1c3.44-2.66,8.21-1.33,10.2,1.33c1.78,2.44,2.66,6.54-1.22,10.42c-7.76,7.21-17.08,8.65-26.29,8.65
			C960.06,127.31,947.97,109.01,947.97,87.61z"/>
		<path class="st0" d="M1037.79,119.66V56.67c0-3.99,2.88-6.88,7.88-6.88c3.88,0,6.77,2.88,6.77,6.88v24.18h36.15V56.67
			c0-3.99,3.55-6.88,7.54-6.88c3.88,0,6.88,2.88,6.88,6.88v62.99c0,3.88-3,6.88-6.88,6.88c-3.99,0-7.54-3-7.54-6.88V95.37h-36.15
			v24.29c0,3.88-2.88,6.88-6.77,6.88C1040.67,126.54,1037.79,123.54,1037.79,119.66z"/>
		<path class="st0" d="M1142.02,77.85v41.04c0,4.88-3.99,7.65-7.99,7.65c-3.55,0-6.66-2.77-6.66-7.65V56.45
			c0-5.77,4.88-7.65,6.66-7.65c3.22,0,5.1,1.89,6.99,3.99l24.4,32.94l25.29-34.16c3.66-4.55,12.64-2.77,12.64,4.88v62.44
			c0,4.88-3.11,7.65-6.66,7.65c-3.99,0-7.1-2.77-7.1-7.65V77.85l-18.41,23.29c-3.99,4.88-8.98,4.88-12.64,0L1142.02,77.85z"/>
		<path class="st0" d="M1228.39,56.45c0-9.1,14.64-9.43,14.64,0v63.32c0,9.2-14.64,9.43-14.64,0V56.45z"/>
		<path class="st0" d="M1275.07,126.54c-3.88,0-6.87-3-6.87-6.88V56.67c0-3.99,2.99-6.88,6.87-6.88h39.81c10.2,0,9.98,14.42,0,14.42
			h-31.94v16.64h27.95c9.87,0,9.87,14.53,0,14.53h-27.95v16.64h33.83c10.09,0,10.87,14.53,0,14.53H1275.07z"/>
		<path class="st0" d="M1353.02,126.54c-3.66,0-7.65-2-7.65-6.88V56.67c0-3.99,3.99-6.88,7.65-6.88h25.4
			c50.68,0,49.57,76.75,1,76.75H1353.02z M1360.01,63.32v49.68h18.41c29.94,0,31.27-49.68,0-49.68H1360.01z"/>
		<path class="st0" d="M1444.72,126.54c-3.88,0-6.87-3-6.87-6.88V56.67c0-3.99,2.99-6.88,6.87-6.88h39.81c10.2,0,9.98,14.42,0,14.42
			h-31.94v16.64h27.95c9.87,0,9.87,14.53,0,14.53h-27.95v16.64h33.83c10.1,0,10.87,14.53,0,14.53H1444.72z"/>
	</g>
	<g>
		<g>
			<g>
				<path class="st1" d="M26.3,150.76c-4.17-1.21-7.89-4-10.15-8.11c-4.53-8.21-1.55-18.53,6.66-23.06l43.34-23.91L42.24,52.34
					c-4.53-8.21-1.55-18.53,6.66-23.06c8.21-4.53,18.53-1.54,23.06,6.66l32.11,58.2c4.53,8.21,1.55,18.53-6.66,23.06l-58.2,32.11
					C35.11,151.58,30.47,151.96,26.3,150.76z"/>
				<path class="st2" d="M153.9,32.19c4.17,1.21,7.89,4,10.15,8.11c4.53,8.21,1.55,18.53-6.66,23.06l-43.34,23.91l23.91,43.34
					c4.53,8.21,1.55,18.53-6.66,23.06c-8.21,4.53-18.53,1.54-23.06-6.66l-32.11-58.2c-4.53-8.21-1.55-18.53,6.66-23.06l58.2-32.11
					C145.09,31.37,149.72,30.99,153.9,32.19z"/>
				<path class="st3" d="M112.1,14.53c-4.42-1.57-9.05-1.2-12.97,0.67s-7.13,5.23-8.7,9.65L50.17,138.93
					c-3.13,8.83,1.49,18.54,10.32,21.67c4.42,1.57,9.05,1.2,12.97-0.67c3.92-1.87,7.13-5.23,8.7-9.65L122.42,36.2
					C125.55,27.36,120.93,17.66,112.1,14.53z"/>
			</g>
		</g>
	</g>
</g>
</svg>
